<?xml version="1.0" encoding="UTF-8"?>
<svg id="Calque_1" data-name="Calque 1" xmlns="http://www.w3.org/2000/svg" xmlns:xlink="http://www.w3.org/1999/xlink" viewBox="0 0 460 460">
  <defs>
    <style>
      .cls-1 {
        fill: url(#Dégradé_sans_nom_1159-2);
      }

      .cls-2 {
        fill: url(#Dégradé_sans_nom_1159);
      }

      .cls-3 {
        fill: url(#Dégradé_sans_nom_1159-3);
      }
    </style>
    <linearGradient id="Dégradé_sans_nom_1159" data-name="Dégradé sans nom 1159" x1="83.29" y1="218.44" x2="388.02" y2="218.44" gradientUnits="userSpaceOnUse">
      <stop offset="0" stop-color="#95c7ec"/>
      <stop offset=".09" stop-color="#8ebde1" stop-opacity=".99"/>
      <stop offset=".25" stop-color="#7ba5c4" stop-opacity=".97"/>
      <stop offset=".46" stop-color="#5e7d95" stop-opacity=".93"/>
      <stop offset=".71" stop-color="#344653" stop-opacity=".87"/>
      <stop offset=".99" stop-color="#010101" stop-opacity=".8"/>
      <stop offset="1" stop-color="#000" stop-opacity=".8"/>
    </linearGradient>
    <linearGradient id="Dégradé_sans_nom_1159-2" data-name="Dégradé sans nom 1159" x1="82.17" y1="94.37" x2="377.65" y2="94.37" xlink:href="#Dégradé_sans_nom_1159"/>
    <linearGradient id="Dégradé_sans_nom_1159-3" data-name="Dégradé sans nom 1159" x1="89.02" y1="345.07" x2="375.68" y2="345.07" xlink:href="#Dégradé_sans_nom_1159"/>
  </defs>
  <path class="cls-2" d="M387,88c-7.24,13.24-17.03,29.74-25.54,41.96-5.92,8.49-40.03,28.08-50.93,35.07-14.35,9.21-29.36,17.92-43.84,27.16-6.49,4.14-12.07,9.67-19.68,11.83l45,21c.41,1.52-.41,1.66-.99,2.5-2.93,4.29-20.57,15.31-26.07,18.93-33.91,22.34-70.42,41.05-105.25,61.75-24.17,14.36-49.06,32.34-73.7,43.8-2.88,1.68-3.32.95-2-2,8.17-16.99,21.21-38.96,35.52-51.03,22.61-19.07,47.76-37.76,70.97-55.94,2.88-2.26,18.91-13.06,19.51-14.54.68-1.68-2.19-2.21-3.31-2.64-12.05-4.66-23.48-9.78-35.42-14.64-1.49-.61-2.13-1.4-3.26-2.2-1.34-.72-2.01-2.06-2-4,.54-4.9,6.42-6.44,10.24-9.03,5.95-4.04,6.36-3.77,12.45-6.77,55.42-27.36,109.19-57.33,163.61-86.39,11.72-6.26,23.45-11.61,34.7-18.8,1.37.03,1.37,1.36,0,4Z"/>
  <path class="cls-1" d="M327,110c-1.13.84-2.46,1.51-4,2-7.81,1.69-15.59.8-23.54.96-54.6,1.1-109.72-.94-164.46-.96-8.07-.38-16.07-.71-24-1-3.89.98-8.05.8-12,0-.33,0-.67.01-1,0-3.25-.91-6.72-.68-10,0-11.36-1.45-3.48-5.83,1.48-9.02,15.77-10.16,33.72-16.59,49.8-26.2,56.26-1.38,112.9,1.93,169.18,3.26,18.39.44,49.5-2.81,65.96,2.04,8.79,2.59-2.81,5.82-6.09,7.76-12.08,7.13-28.21,16.26-41.33,21.17Z"/>
  <path class="cls-3" d="M334,356c-.3,1.2-1.3,1.86-3,2-.32.06-.67-.04-1,0-3.82-.82-7.15-.49-10,1-.33,0-.67,0-1,0-1.73-.34-3.4-.67-5-1-5.26.77-10.74.74-16,0-2.5.97-5.41.74-8,0-1.96,1.99-7.09,1.55-10,1-1.85.8-4.14.77-6,0-3.58.84-7.46.79-11,0-2.85.26-5.85.6-9,1-40.44.31-80.54,2.27-121,3-2.93.89-6.05.86-9,0-1,.01-2-.02-3,0-3.52.16-6.85.83-10,2-.33.02-.67-.02-1,0-6.02-.24-12.02-.58-18-1-1.19-.58-2.13-1.51-2.98-2.5,3.24-2.9,6.07-6.91,9.84-9.14,9.14-5.41,20.68-9.99,30.2-14.8,5.54-2.8,11.9-8.78,18.42-9.58,17.49-2.14,42.53.33,61.07.06,45.75-.65,92.04-1.49,138-2,9.33-.1,16.89-1.99,26.92,0,5.73,1.13-1.18,6.51-3.55,8.38-9.28,7.3-25.3,15.04-35.91,21.59Z"/>
</svg>