<?xml version="1.0" encoding="UTF-8"?>
<svg id="Calque_1" data-name="Calque 1" xmlns="http://www.w3.org/2000/svg" xmlns:xlink="http://www.w3.org/1999/xlink" viewBox="0 0 460 460">
  <defs>
    <style>
      .cls-1 {
        fill: url(#Dégradé_sans_nom_11);
      }

      .cls-2 {
        fill: url(#Dégradé_sans_nom_11-2);
      }

      .cls-3 {
        fill: url(#Dégradé_sans_nom_11-3);
      }
    </style>
    <linearGradient id="Dégradé_sans_nom_11" data-name="Dégradé sans nom 11" x1="82.62" y1="219.08" x2="388.7" y2="219.08" gradientUnits="userSpaceOnUse">
      <stop offset="0" stop-color="#8e1919"/>
      <stop offset=".13" stop-color="#851717"/>
      <stop offset=".34" stop-color="#6c1313"/>
      <stop offset=".61" stop-color="#450c0c"/>
      <stop offset=".92" stop-color="#0f0202"/>
      <stop offset="1" stop-color="#000"/>
    </linearGradient>
    <linearGradient id="Dégradé_sans_nom_11-2" data-name="Dégradé sans nom 11" x1="81.49" y1="94.45" x2="378.28" y2="94.45" xlink:href="#Dégradé_sans_nom_11"/>
    <linearGradient id="Dégradé_sans_nom_11-3" data-name="Dégradé sans nom 11" x1="89.02" y1="345.07" x2="375.68" y2="345.07" xlink:href="#Dégradé_sans_nom_11"/>
  </defs>
  <path class="cls-1" d="M387.67,88.06c-7.27,13.3-17.11,29.87-25.65,42.14-5.94,8.53-40.21,28.2-51.15,35.23-14.41,9.25-29.49,18-44.04,27.28-6.52,4.15-12.12,9.71-19.77,11.88l45.19,21.09c.42,1.53-.41,1.67-.99,2.51-2.94,4.31-20.66,15.38-26.18,19.02-34.06,22.44-70.73,41.23-105.71,62.03-24.27,14.43-49.28,32.49-74.02,44-2.89,1.68-3.34.96-2.01-2.01,8.2-17.07,21.3-39.13,35.67-51.26,22.71-19.16,47.97-37.93,71.28-56.19,2.9-2.27,19-13.12,19.59-14.61.68-1.69-2.2-2.22-3.32-2.65-12.11-4.68-23.58-9.82-35.58-14.7-1.5-.61-2.14-1.41-3.28-2.21-1.35-.73-2.02-2.06-2.01-4.02.54-4.93,6.45-6.47,10.29-9.07,5.98-4.06,6.39-3.78,12.5-6.8,55.66-27.48,109.67-57.59,164.34-86.77,11.77-6.28,23.55-11.66,34.85-18.89,1.37.03,1.37,1.37,0,4.02Z"/>
  <path class="cls-2" d="M327.41,110.15c-1.13.84-2.47,1.51-4.02,2.01-7.85,1.7-15.66.8-23.65.96-54.84,1.11-110.21-.94-165.19-.96-8.11-.38-16.14-.71-24.11-1-3.91.99-8.09.8-12.05,0-.33,0-.67.01-1,0-3.26-.91-6.75-.68-10.04,0-11.41-1.45-3.49-5.85,1.49-9.06,15.84-10.2,33.87-16.67,50.02-26.32,56.51-1.39,113.39,1.93,169.93,3.28,18.47.44,49.72-2.82,66.26,2.05,8.83,2.6-2.83,5.85-6.11,7.79-12.14,7.16-28.33,16.34-41.52,21.26Z"/>
  <path class="cls-3" d="M334,356c-.3,1.2-1.3,1.86-3,2-.32.06-.67-.04-1,0-3.82-.82-7.15-.49-10,1-.33,0-.67,0-1,0-1.73-.34-3.4-.67-5-1-5.26.77-10.74.74-16,0-2.5.97-5.41.74-8,0-1.96,1.99-7.09,1.55-10,1-1.85.8-4.14.77-6,0-3.58.84-7.46.79-11,0-2.85.26-5.85.6-9,1-40.44.31-80.54,2.27-121,3-2.93.89-6.05.86-9,0-1,.01-2-.02-3,0-3.52.16-6.85.83-10,2-.33.02-.67-.02-1,0-6.02-.24-12.02-.58-18-1-1.19-.58-2.13-1.51-2.98-2.5,3.24-2.9,6.07-6.91,9.84-9.14,9.14-5.41,20.68-9.99,30.2-14.8,5.54-2.8,11.9-8.78,18.42-9.58,17.49-2.14,42.53.33,61.07.06,45.75-.65,92.04-1.49,138-2,9.33-.1,16.89-1.99,26.92,0,5.73,1.13-1.18,6.51-3.55,8.38-9.28,7.3-25.3,15.04-35.91,21.59Z"/>
</svg>